<?xml version="1.0" encoding="utf-8"?>
<!-- Generator: Adobe Illustrator 22.0.1, SVG Export Plug-In . SVG Version: 6.00 Build 0)  -->
<svg version="1.1" id="Réteg_1" xmlns="http://www.w3.org/2000/svg" xmlns:xlink="http://www.w3.org/1999/xlink" x="0px" y="0px"
	 viewBox="0 0 79.4 154.5" style="enable-background:new 0 0 79.4 154.5;" xml:space="preserve">
<style type="text/css">
	.st0{opacity:0.2;}
	.st1{fill:black;}
</style>
<g class="st0">
	<path class="st1" d="M26.6,59.1h10.6c8.4,0,12.7-4.1,12.7-12.4c0-3.2-1-5.8-3-7.9c-2-2-4.8-3-8.5-3c-3,0-5.6,0.9-7.8,2.6
		c-2.2,1.7-3.3,3.9-3.3,6.5H4.7c0-5.1,1.4-9.7,4.3-13.7c2.9-4,6.8-7.2,11.9-9.4c5.1-2.3,10.6-3.4,16.7-3.4c10.8,0,19.4,2.5,25.6,7.4
		c6.2,5,9.3,11.8,9.3,20.4c0,4.2-1.3,8.2-3.9,11.9c-2.6,3.7-6.3,6.8-11.2,9.1c5.2,1.9,9.2,4.7,12.2,8.5c2.9,3.8,4.4,8.5,4.4,14.2
		c0,8.7-3.3,15.7-10,20.9c-6.7,5.2-15.5,7.8-26.4,7.8c-6.4,0-12.3-1.2-17.8-3.6c-5.5-2.4-9.6-5.8-12.4-10.1
		c-2.8-4.3-4.2-9.2-4.2-14.7h22.7c0,3,1.2,5.6,3.6,7.8c2.4,2.2,5.4,3.3,8.9,3.3c4,0,7.1-1.1,9.5-3.3c2.4-2.2,3.5-5,3.5-8.5
		c0-4.9-1.2-8.4-3.7-10.4c-2.5-2.1-5.8-3.1-10.2-3.1h-11V59.1z"/>
</g>
</svg>
