<?xml version="1.0" encoding="utf-8"?>
<!-- Generator: Adobe Illustrator 22.0.1, SVG Export Plug-In . SVG Version: 6.00 Build 0)  -->
<svg version="1.1" id="Réteg_1" xmlns="http://www.w3.org/2000/svg" xmlns:xlink="http://www.w3.org/1999/xlink" x="0px" y="0px"
	 viewBox="0 0 535 532.5" style="enable-background:new 0 0 535 532.5;" xml:space="preserve">
<g>
	<path  d="M459,393.7c-128.4,0-256,0-384,0c0,5.2,0.1,10.1,0,15.1c-0.1,9.5-6.8,16.6-15.7,16.7c-9.1,0.1-16.3-6.9-16.3-16.6
		c-0.1-37.8-0.3-75.6,0.1-113.5c0.2-25,22.1-45.9,47.5-45.9c63.1-0.1,126.3,0,189.4,0c53.5,0,107,0,160.4,0
		c30.1,0,50.6,20.4,50.6,50.4c0,36,0.1,72,0,108c0,12.7-10.6,20.8-21.6,16.5c-6.5-2.5-10.1-7.5-10.3-14.5
		C458.9,404.6,459,399.3,459,393.7z"/>
	<path  d="M139,217.3c-16.1,0-31.7,0-48,0c0-5.2,0-10.3,0-15.4c0-26,0-52,0-78c0-12.3,6.2-18.4,18.4-18.4c104.6,0,209.3,0,313.9,0
		c14,0,19.6,5.7,19.6,19.7c0,30.5,0,61,0,91.9c-15.9,0-31.6,0-48,0c0-4.6,0-9.4,0-14.2c-0.1-19.7-13.6-33.3-33.3-33.4
		c-15.3-0.1-30.7-0.1-46,0c-19,0.1-32.6,13.9-32.7,32.9c0,4.8,0,9.6,0,14.7c-10.7,0-21.1,0-32,0c0-5.1,0-10.1,0-15
		c-0.2-18.8-13.8-32.5-32.5-32.7c-15.8-0.1-31.7-0.1-47.5,0c-17.7,0.1-31.7,14-32,31.7C138.9,206.4,139,211.5,139,217.3z"/>
</g>
</svg>
