<?xml version="1.0" encoding="utf-8"?>
<!-- Generator: Adobe Illustrator 22.0.1, SVG Export Plug-In . SVG Version: 6.00 Build 0)  -->
<svg version="1.1" id="Réteg_1" xmlns="http://www.w3.org/2000/svg" xmlns:xlink="http://www.w3.org/1999/xlink" x="0px" y="0px"
	 viewBox="0 0 24.8 24.8" style="enable-background:new 0 0 24.8 24.8;" xml:space="preserve">
<style type="text/css">
	.st0{fill:none;stroke:#2B70D3;stroke-width:0.75;stroke-linecap:round;stroke-linejoin:round;stroke-miterlimit:10;}
	.st1{fill:#FFFFFF;}
	.st2{fill:#FFFFFF;stroke:#2B70D3;stroke-width:0.75;stroke-linecap:round;stroke-linejoin:round;stroke-miterlimit:10;}
</style>
<polygon class="st0" points="15.6,9.4 15.6,17 8,17 4.9,20 4.9,9.4 "/>
<path class="st1" d="M15.9,15.6H7.6C7.3,15.6,7,15.3,7,15V5.4c0-0.3,0.3-0.6,0.6-0.6h13c0.3,0,0.6,0.3,0.6,0.6v13.8
	c0,0.6-0.7,0.8-1.1,0.4l-3.9-3.9C16.2,15.7,16.1,15.6,15.9,15.6z"/>
<polygon class="st0" points="8.8,6.2 8.8,13.8 16.4,13.8 19.5,16.9 19.5,6.2 "/>
<line class="st0" x1="10.7" y1="8.1" x2="17.5" y2="8.1"/>
<line class="st0" x1="10.7" y1="10.1" x2="17.5" y2="10.1"/>
<line class="st0" x1="10.7" y1="11.9" x2="14.3" y2="11.9"/>
</svg>
