<?xml version="1.0" encoding="utf-8"?>
<!-- Generator: Adobe Illustrator 22.0.1, SVG Export Plug-In . SVG Version: 6.00 Build 0)  -->
<svg version="1.1" id="Réteg_1" xmlns="http://www.w3.org/2000/svg" xmlns:xlink="http://www.w3.org/1999/xlink" x="0px" y="0px"
	 viewBox="0 0 914.8 259.6" style="enable-background:new 0 0 914.8 259.6;" xml:space="preserve">
<style type="text/css">
	.st0{fill:#FFE600;}
	.st1{opacity:0;fill:none;stroke:#000000;stroke-miterlimit:10;}
	.st2{fill:none;stroke:#6D6E71;stroke-width:3.1235;stroke-linecap:round;stroke-linejoin:round;stroke-dasharray:0.2642,15.8507;}
	.st3{fill:#262262;}
	.st4{fill:url(#SVGID_1_);}
	.st5{fill:#FFFFFF;}
	.st6{fill:#024369;}
	.st7{fill:url(#SVGID_2_);}
	.st8{fill:url(#SVGID_3_);}
	.st9{fill:none;stroke:#024369;stroke-width:30;stroke-miterlimit:10;}
	.st10{fill:none;stroke:#024369;stroke-width:24;stroke-linecap:round;stroke-linejoin:round;stroke-miterlimit:10;}
	.st11{fill:none;stroke:#024369;stroke-width:30;stroke-linecap:round;stroke-linejoin:round;stroke-miterlimit:10;}
	.st12{fill:url(#SVGID_4_);}
	.st13{fill:url(#SVGID_5_);}
	.st14{fill:url(#SVGID_6_);}
	.st15{fill:url(#SVGID_7_);}
	.st16{fill:url(#SVGID_8_);}
	.st17{fill:url(#SVGID_9_);}
	.st18{fill:url(#SVGID_10_);}
	.st19{fill:url(#SVGID_11_);}
	.st20{fill:#B7711B;}
	.st21{fill:none;stroke:#000000;stroke-width:8;stroke-linecap:round;stroke-linejoin:round;stroke-miterlimit:10;}
	.st22{fill:url(#SVGID_12_);}
	.st23{fill:#161616;}
	.st24{fill:#8B4513;}
	.st25{fill:#58595B;}
	.st26{fill:#939598;}
	.st27{fill:#BCBEC0;}
	.st28{fill:none;stroke:#BCBEC0;stroke-width:1.3117;stroke-miterlimit:10;}
	.st29{fill:#0BAD6C;}
	.st30{fill:#323232;}
	.st31{fill:none;stroke:#6D6E71;stroke-width:2.2852;stroke-linecap:round;stroke-linejoin:round;stroke-dasharray:0.1933,11.5957;}
	.st32{fill:#F9ED32;}
	.st33{fill:#6D6E71;}
	.st34{opacity:0.4;}
	.st35{fill:none;stroke:#000000;stroke-miterlimit:10;}
	.st36{fill:#4169E1;}
	.st37{fill:#DAA520;}
	.st38{opacity:0.36;}
	
		.st39{fill:none;stroke:#58595B;stroke-width:1.5;stroke-linecap:round;stroke-linejoin:round;stroke-miterlimit:10;stroke-dasharray:0.2,5;}
	.st40{fill:none;stroke:#000000;stroke-width:1.5316;stroke-linecap:round;stroke-linejoin:round;stroke-miterlimit:10;}
	.st41{fill:none;stroke:#000000;stroke-width:10;stroke-linecap:round;stroke-linejoin:round;stroke-miterlimit:10;}
	.st42{fill:#FFE91C;}
</style>
<path d="M198.7,129.4v79.5c0,0-43.7,0-43.7-43.7v-32.6h5.1c2.4,0,3.5-3,1.8-4.6L121,91.2c-1-0.9-2.5-0.9-3.5,0L76.6,128
	c-1.8,1.6-0.6,4.6,1.8,4.6h5.1v32.6c0,43.7-43.7,43.7-43.7,43.7v-159h43.7v8.5c10.8-5.4,22.9-8.5,35.8-8.5c22,0,41.8,8.9,56.2,23.3
	C189.8,87.5,198.7,107.4,198.7,129.4z"/>
<g>
	<path d="M259.4,77.8h9.9l29.4,68.9V77.8h12v103.7h-9.2l-29.8-70.8v70.8h-12.3V77.8z"/>
	<path d="M331.7,174c-4.4-5.8-6.6-14.1-6.6-25v-39.3c0-10.8,2.2-18.9,6.7-24.4c4.4-5.5,11.7-8.3,21.8-8.3c10.1,0,17.3,2.8,21.7,8.4
		c4.4,5.6,6.6,13.7,6.6,24.4v39.4c0,10.8-2.2,19-6.7,24.8c-4.4,5.8-11.6,8.7-21.6,8.7C343.3,182.6,336.1,179.8,331.7,174z
		 M364.4,166.5c1.9-3.2,2.8-7.9,2.8-14.3v-45.4c0-6.3-0.9-11-2.8-14c-1.9-3-5.5-4.5-10.9-4.5c-5.5,0-9.1,1.5-11,4.5
		c-1.9,3-2.8,7.7-2.8,14v45.4c0,6.4,0.9,11.2,2.8,14.3c1.9,3.2,5.5,4.7,11,4.7C358.9,171.3,362.5,169.7,364.4,166.5z"/>
	<path d="M406.6,88.6h-18.8V77.8h51.6v10.8h-18.3v92.9h-14.5V88.6z"/>
	<path d="M447.3,77.8H461v103.7h-13.7V77.8z"/>
	<path d="M476.2,82.2h13.7v14.3h-13.7V82.2z M476.2,107.5h13.7v74h-13.7V107.5z"/>
	<path d="M504.9,77.7h13.7v61.8l20-32h14.3l-17.4,28.9l16.9,45.1h-13.7l-13.8-37.9l-6.3,9.5v28.3h-13.7V77.7z"/>
	<path d="M566.7,179.2c-3.2-2.2-5.4-5.4-6.7-9.7c-1.3-4.3-1.9-9.8-1.9-16.6v-16.9c0-10.2,1.6-17.7,4.8-22.5
		c3.2-4.7,8.9-7.1,17.1-7.1c6,0,10.5,1.2,13.5,3.7c3,2.5,5,6,6,10.4c1,4.5,1.5,10.5,1.5,18.1v6h-29.2v9.9c0,4.4,0.1,7.8,0.3,10
		c0.2,2.2,0.9,4.1,2,5.6c1.2,1.5,3.1,2.2,5.7,2.2c3,0,5-1,6.1-3c1.1-2,1.6-5.1,1.6-9.2v-4.5h13.3v2.8c0,7.8-1.7,13.7-5,17.8
		s-8.6,6.1-15.9,6.1C574.3,182.5,569.9,181.4,566.7,179.2z M587.6,137.3v-6.7c0-5-0.5-8.6-1.5-10.8c-1-2.2-3.1-3.3-6.2-3.3
		c-2.2,0-3.9,0.5-5.1,1.5s-1.9,2.7-2.4,5.1c-0.4,2.3-0.6,5.7-0.6,10.2v4H587.6z"/>
	<path d="M625.2,88.6h-18.8V77.8H658v10.8h-18.3v92.9h-14.5V88.6z"/>
	<path d="M665.8,77.8h14.5v44.8h26.6V77.8h14.5v103.7h-14.5V133h-26.6v48.5h-14.5V77.8z"/>
	<path d="M737.6,77.8h40.2v10.8H752v34.3h20.9v10.2H752v38h26v10.4h-40.4V77.8z"/>
	<path d="M791.3,77.8h14.2l18.3,84.1l18.4-84.1h14.1l1.9,103.7h-11.6l-1.2-75.3l-17.5,75.3h-8.2l-17.4-75.3l-1.2,75.3h-11.8
		L791.3,77.8z"/>
</g>
</svg>
