<?xml version="1.0" encoding="utf-8"?>
<!-- Generator: Adobe Illustrator 22.0.1, SVG Export Plug-In . SVG Version: 6.00 Build 0)  -->
<svg version="1.1" id="Réteg_1" xmlns="http://www.w3.org/2000/svg" xmlns:xlink="http://www.w3.org/1999/xlink" x="0px" y="0px"
	 viewBox="0 0 1920 200" style="enable-background:new 0 0 1920 200;" xml:space="preserve">
<style type="text/css">
	.st0{fill:#FF5200;}
	.st1{fill:#FFFFFF;}
</style>
<polygon class="st1" points="1920,100 1920,200 0,200 0,100.3 27.1,127.5 54.6,100 82.1,127.5 109.5,100.1 136.8,127.5 164.3,100 
	191.8,127.5 219.2,100.1 246.6,127.5 274.1,100 301.6,127.5 328.9,100.1 356.3,127.5 383.8,100 411.3,127.5 438.7,100.1 466,127.5 
	493.5,100 521,127.5 548.4,100.1 575.8,127.5 603.3,100 630.7,127.5 658.1,100.1 685.5,127.5 713,100 740.5,127.5 767.9,100.1 
	795.2,127.5 822.7,100 850.2,127.5 877.6,100.1 905,127.5 932.4,100 959.9,127.5 987.3,100.1 1014.7,127.5 1042.2,100 1069.7,127.5 
	1097.1,100.1 1124.4,127.5 1151.9,100 1179.4,127.5 1206.8,100.1 1234.1,127.5 1261.6,100 1289.1,127.5 1316.5,100.1 1343.9,127.5 
	1371.4,100 1398.9,127.5 1426.2,100.1 1453.6,127.5 1481.1,100 1508.6,127.5 1536,100.1 1563.3,127.5 1590.8,100 1618.3,127.5 
	1645.7,100.1 1673.1,127.5 1700.5,100 1728,127.5 1755.4,100.1 1782.8,127.5 1810.3,100 1837.8,127.5 1865.2,100.1 1892.5,127.5 "/>
</svg>
