<?xml version="1.0" encoding="utf-8"?>
<!-- Generator: Adobe Illustrator 22.0.1, SVG Export Plug-In . SVG Version: 6.00 Build 0)  -->
<svg version="1.1" id="Réteg_1" xmlns="http://www.w3.org/2000/svg" xmlns:xlink="http://www.w3.org/1999/xlink" x="0px" y="0px"
	 viewBox="0 0 24.8 24.8" style="enable-background:new 0 0 24.8 24.8;" xml:space="preserve">
<style type="text/css">
	.st0{fill:none;stroke:#2B70D3;stroke-width:0.75;stroke-linecap:round;stroke-linejoin:round;stroke-miterlimit:10;}
	.st1{fill:#FFFFFF;}
	.st2{fill:#FFFFFF;stroke:#2B70D3;stroke-width:0.75;stroke-linecap:round;stroke-linejoin:round;stroke-miterlimit:10;}
	.st3{fill:#2B70D3;}
	.st4{fill:none;}
	.st5{fill:none;stroke:#000000;stroke-width:0.3537;stroke-miterlimit:10;}
</style>
<path class="st0" d="M12.6,12.2c2,0,3.6-1.6,3.6-3.6s-1.6-3.6-3.6-3.6S9.1,6.7,9.1,8.6S10.7,12.2,12.6,12.2z M12.6,14
	c-2.4,0-7.1,1.2-7.1,3.6v0.9c0,0.5,0.4,0.9,0.9,0.9h12.5c0.5,0,0.9-0.4,0.9-0.9v-0.9C19.8,15.2,15,14,12.6,14z"/>
<circle class="st1" cx="17.6" cy="17.9" r="4.1"/>
<g>
	<circle class="st2" cx="17.7" cy="17.9" r="2.7"/>
	<polyline class="st2" points="16.3,18.1 17.1,18.9 19,17 	"/>
</g>
</svg>
