<?xml version="1.0" encoding="utf-8"?>
<!-- Generator: Adobe Illustrator 22.0.1, SVG Export Plug-In . SVG Version: 6.00 Build 0)  -->
<svg version="1.1" id="Réteg_1" xmlns="http://www.w3.org/2000/svg" xmlns:xlink="http://www.w3.org/1999/xlink" x="0px" y="0px"
	 viewBox="0 0 24.8 24.8" style="enable-background:new 0 0 24.8 24.8;" xml:space="preserve">
<style type="text/css">
	.st0{fill:none;stroke:#2B70D3;stroke-width:0.75;stroke-linecap:round;stroke-linejoin:round;stroke-miterlimit:10;}
	.st1{fill:#FFFFFF;}
	.st2{fill:#FFFFFF;stroke:#2B70D3;stroke-width:0.75;stroke-linecap:round;stroke-linejoin:round;stroke-miterlimit:10;}
</style>
<polygon class="st0" points="18.5,3.5 18.5,21.9 9.1,21.9 6.3,19.1 6.3,3.5 "/>
<rect x="8.2" y="5.4" class="st0" width="8.4" height="7.6"/>
<line class="st0" x1="8.1" y1="17.5" x2="16.6" y2="17.5"/>
<line class="st0" x1="8.2" y1="15.2" x2="16.6" y2="15.2"/>
<line class="st0" x1="8.2" y1="19.8" x2="16.6" y2="19.8"/>
<rect x="18.4" y="6.2" transform="matrix(0.7071 -0.7071 0.7071 0.7071 0.3696 16.6162)" class="st1" width="3.7" height="3.4"/>
<path class="st1" d="M12.9,14.4l0-1.2c0-0.2,0.1-0.4,0.2-0.6l5.2-5.2c0.3-0.3,0.9-0.3,1.2,0l1.2,1.2c0.3,0.3,0.3,0.9,0,1.2L15.5,15
	c-0.2,0.2-0.4,0.3-0.6,0.2l-1.2,0C13.2,15.2,12.9,14.9,12.9,14.4z"/>
<rect x="20" y="6.7" transform="matrix(0.7071 -0.7071 0.7071 0.7071 0.7009 16.7534)" class="st0" width="1.1" height="1.7"/>
<polygon class="st0" points="18.9,8 20.1,9.2 14.9,14.4 13.7,14.4 13.7,13.2 "/>
<rect x="8.7" y="18.5" class="st1" width="1.3" height="2.8"/>
<polygon class="st2" points="9.1,19.1 9.1,21.9 6.3,19.1 "/>
</svg>
