<?xml version="1.0" encoding="utf-8"?>
<!-- Generator: Adobe Illustrator 22.0.1, SVG Export Plug-In . SVG Version: 6.00 Build 0)  -->
<svg version="1.1" id="Réteg_1" xmlns="http://www.w3.org/2000/svg" xmlns:xlink="http://www.w3.org/1999/xlink" x="0px" y="0px"
	 viewBox="0 0 24.8 24.8" style="enable-background:new 0 0 24.8 24.8;" xml:space="preserve">
<style type="text/css">
	.st0{fill:none;stroke:#2B70D3;stroke-width:0.75;stroke-linecap:round;stroke-linejoin:round;stroke-miterlimit:10;}
	.st1{fill:#FFFFFF;}
	.st2{fill:#FFFFFF;stroke:#2B70D3;stroke-width:0.75;stroke-linecap:round;stroke-linejoin:round;stroke-miterlimit:10;}
</style>
<path class="st0" d="M19.1,18.8L19.1,18.8c-0.7,0.7-1.7,0.7-2.3,0l-7.4-7.4c0,0-0.1-0.1-0.1-0.1h0c-0.2,0-0.4,0.1-0.6,0.1
	c-1.7,0-3.1-1.4-3.1-3.1c0-0.4,0.1-0.7,0.2-1l1.9,2L9.3,9l0.4-1.5l-2-2c0.3-0.1,0.7-0.2,1-0.2c1.7,0,3.1,1.4,3.1,3.1
	c0,0.2,0,0.5-0.1,0.7c0,0,0,0,0,0l7.4,7.4C19.8,17.1,19.8,18.2,19.1,18.8z"/>
<path class="st1" d="M7.3,20.1c-0.7,0-1.3-0.3-1.7-0.7c-0.4-0.4-0.7-1.1-0.7-1.7c0-0.6,0.3-1.3,0.7-1.7l2.8-2.8l0.2-0.1
	c0,0,0.1,0,0.2,0c0.1,0,0.2,0,0.4-0.2l0,0l0.1,0c0.1-0.1,0.2-0.2,0.3-0.3c0.1-0.1,0.1-0.2,0.1-0.2l0.5-0.7l0.6,0.3l4.2-4.2l0.7-1.3
	l2.7-1.9l2.1,2.1l-1.9,2.6l-1.4,0.8L13.2,14l0.4,0.8l-0.9,0.5c-0.1,0-0.6,0.2-0.7,0.9l0,0.3L9,19.4C8.6,19.9,8,20.1,7.3,20.1z"/>
<path class="st0" d="M19.5,6.6l-1.4,1.9l-1,0.5l-0.1-0.1L12,14c0.1,0.1,0.2,0.2,0.3,0.3c0,0,0.1,0.1,0.1,0.1
	c0.1,0.1,0.1,0.1,0.1,0.1s-1.2,0.3-1.4,1.6l-2.7,2.7c-0.3,0.3-0.7,0.5-1.1,0.5c-0.4,0-0.8-0.1-1.1-0.5c-0.6-0.6-0.6-1.6,0-2.2
	l2.7-2.7c0,0,0,0,0.1,0c0.2,0,0.5-0.1,0.9-0.4c0,0,0,0,0,0c0.2-0.1,0.4-0.3,0.6-0.6c0.1-0.1,0.1-0.2,0.2-0.3
	c0.1,0.1,0.2,0.2,0.3,0.3l5.1-5.1L16,7.8l0.5-0.9l2-1.4L19.5,6.6z"/>
<line class="st0" x1="16.1" y1="7.9" x2="17.1" y2="8.9"/>
<line class="st0" x1="11" y1="13" x2="12" y2="14"/>
</svg>
