<?xml version="1.0" encoding="utf-8"?>
<!-- Generator: Adobe Illustrator 22.0.1, SVG Export Plug-In . SVG Version: 6.00 Build 0)  -->
<svg version="1.1" id="Réteg_1" xmlns="http://www.w3.org/2000/svg" xmlns:xlink="http://www.w3.org/1999/xlink" x="0px" y="0px"
	 viewBox="0 0 851.3 826.3" style="enable-background:new 0 0 851.3 826.3;" xml:space="preserve">
<g>
	<path d="M637.2,681.2c0-1.1,0-2.1,0-3.2c-0.3-24,0.4-48-1-72c-1.4-24.1-4.1-48.3-7.6-72.2c-4.8-33.4-13.3-65.9-24.1-97.9
		c-23-68.8-56.8-131.8-101.3-189.1c-28.9-37.3-61.6-70.9-97.9-100.9c-54.1-44.7-114-79.6-179.7-104.6
		C189.1,27.4,151.6,17,113.1,10.1C76.3,3.4,39.1,0.1,1.7,0C1.2,0,0.7,0.1,0,0.1C0,25,0,49.8,0,75.6c7.9,0,15.7-0.2,23.6,0
		c34.2,1.1,67.9,5.7,101.2,13.3c82,18.6,156.1,53.9,222.2,105.7c56.7,44.4,103.2,97.8,139.4,160.1c32.4,55.7,54.5,115.3,66.3,178.6
		c6.8,36.7,9.9,73.7,9.6,111c-0.1,12.2,0,24.5,0,37c-53.5-53.5-106.8-106.8-159.7-159.7c-18.4,18.5-36.3,36.3-52.5,52.5
		c83,83.6,166.2,167.6,250.1,252.1c84.4-83.1,167.5-167.3,251.1-250.4c-18-18-35.7-35.7-53.6-53.6
		c-52.9,52.9-106.2,106.2-159.5,159.5C637.8,681.6,637.5,681.4,637.2,681.2z"/>
</g>
</svg>
