<?xml version="1.0" encoding="utf-8"?>
<!-- Generator: Adobe Illustrator 22.0.1, SVG Export Plug-In . SVG Version: 6.00 Build 0)  -->
<svg version="1.1" id="Réteg_1" xmlns="http://www.w3.org/2000/svg" xmlns:xlink="http://www.w3.org/1999/xlink" x="0px" y="0px"
	 viewBox="0 0 24 24" style="enable-background:new 0 0 24 24;" xml:space="preserve">
<style type="text/css">
	.st0{fill:none;}
	.st1{opacity:0.2;}
</style>
<path class="st0" d="M0,0h24v24H0V0z"/>
<path class="st1" d="M17.3,20c0.3-0.3,0.4-0.6,0.3-1l-2-8.6l3.9-3.9c0.6-0.6,0.6-1.5,0-2.1s-1.5-0.6-2.1,0l-3.9,3.9l-8.6-2
	c-0.3-0.1-0.7,0-1,0.3C3.4,7.1,3.5,7.9,4.2,8.3l6.2,3.2l-3.9,3.9L4.2,15c-0.2,0-0.3,0-0.4,0.1l-0.4,0.4c-0.2,0.2-0.2,0.6,0.1,0.8
	l2.6,1.4l1.4,2.6c0.2,0.3,0.6,0.3,0.8,0.1l0.4-0.4c0.1-0.1,0.2-0.3,0.1-0.4l-0.3-2.2l3.9-3.9l3.2,6.2C16,20.4,16.8,20.5,17.3,20z"/>
</svg>
