<?xml version="1.0" encoding="utf-8"?>
<!-- Generator: Adobe Illustrator 22.0.1, SVG Export Plug-In . SVG Version: 6.00 Build 0)  -->
<svg version="1.1" id="Réteg_1" xmlns="http://www.w3.org/2000/svg" xmlns:xlink="http://www.w3.org/1999/xlink" x="0px" y="0px"
	 viewBox="0 0 24.8 24.8" style="enable-background:new 0 0 24.8 24.8;" xml:space="preserve">
<style type="text/css">
	.st0{fill:none;stroke:#2B70D3;stroke-width:0.75;stroke-linecap:round;stroke-linejoin:round;stroke-miterlimit:10;}
	.st1{fill:#FFFFFF;}
	.st2{fill:#FFFFFF;stroke:#2B70D3;stroke-width:0.75;stroke-linecap:round;stroke-linejoin:round;stroke-miterlimit:10;}
	.st3{fill:#2B70D3;}
	.st4{fill:none;}
	.st5{fill:none;stroke:#000000;stroke-width:0.3537;stroke-miterlimit:10;}
	.st6{fill:none;stroke:#2B70D3;stroke-width:0.75;stroke-miterlimit:10;}
</style>
<polyline class="st0" points="7.9,7.7 11.5,4.1 11.5,6.1 11.5,4.1 9.4,4.1 "/>
<g>
	<path class="st0" d="M9.8,14c-0.1-0.3-0.2-0.5-0.2-0.8c-0.1-0.5-0.2-1-0.2-1.6c0-0.9,0.3-1.7,1-2.3c0.4-0.4,0.9-0.7,1.4-0.9
		c0.6-0.2,1.2-0.2,1.9-0.1c0.5,0,0.9,0.2,1.3,0.4c0.6,0.3,1.1,0.9,1.4,1.5c0.2,0.4,0.3,0.8,0.3,1.2c0.1,0.6-0.4,1-1,0.9
		c-0.3-0.1-0.5-0.3-0.5-0.6c0-0.2-0.1-0.4-0.1-0.6c-0.1-0.5-0.3-0.9-0.6-1.1c-0.3-0.2-0.6-0.3-0.9-0.3c-0.4-0.1-0.9-0.1-1.3,0.1
		c-0.7,0.3-1.1,0.8-1.3,1.6c-0.1,0.5,0,1,0.1,1.5c0.1,0.4,0.2,0.7,0.3,1.1c0,0.1,0.1,0.1,0.1,0.1c0.8,0,1.6,0,2.4,0
		c0.3,0,0.6,0.3,0.6,0.6c0,0.3-0.3,0.6-0.6,0.6c-0.7,0-1.4,0-2.1,0c0,0-0.1,0-0.1,0c0.3,1.5,0.3,2.7-0.8,3.7c0,0,0,0,0,0
		c0.1,0,0.2,0,0.3,0c0.6-0.1,0.8,0,1.4,0.1c0.7,0.1,1.4,0.3,2.1,0.4c0.5,0.1,1,0,1.5-0.2c0.2-0.1,0.4-0.2,0.6-0.2
		c0.5-0.2,0.9,0,1.1,0.5c0.1,0.4-0.1,0.8-0.4,0.9c-0.4,0.2-0.9,0.3-1.3,0.4c-0.7,0.2-1.3,0.1-2,0c-0.7-0.2-1.5-0.3-2.2-0.5
		c-0.5-0.1-0.9-0.1-1.4,0c-0.7,0.1-1.3,0.3-1.9,0.6c-0.3,0.1-0.5,0-0.7-0.1c-0.2-0.2-0.3-0.4-0.2-0.7c0.1-0.2,0.2-0.3,0.4-0.4
		c0.1-0.1,0.2-0.1,0.3-0.1c1.1-0.5,1.7-1.3,1.9-2.4c0.1-0.6,0.1-1.1,0-1.7c0-0.1,0-0.1-0.2-0.1c-0.5,0-1,0-1.4,0
		c-0.2,0-0.4-0.1-0.5-0.3c-0.1-0.2-0.1-0.4,0-0.6C8.1,14.1,8.3,14,8.5,14c0.4,0,0.8,0,1.2,0C9.7,14,9.7,14,9.8,14z"/>
</g>
</svg>
