<?xml version="1.0" encoding="utf-8"?>
<!-- Generator: Adobe Illustrator 22.0.1, SVG Export Plug-In . SVG Version: 6.00 Build 0)  -->
<svg version="1.1" id="Réteg_1" xmlns="http://www.w3.org/2000/svg" xmlns:xlink="http://www.w3.org/1999/xlink" x="0px" y="0px"
	 viewBox="0 0 24.8 24.8" style="enable-background:new 0 0 24.8 24.8;" xml:space="preserve">
<style type="text/css">
	.st0{fill:none;stroke:#2B70D3;stroke-width:0.75;stroke-linecap:round;stroke-linejoin:round;stroke-miterlimit:10;}
	.st1{fill:#FFFFFF;}
	.st2{fill:#FFFFFF;stroke:#2B70D3;stroke-width:0.75;stroke-linecap:round;stroke-linejoin:round;stroke-miterlimit:10;}
	.st3{fill:#2B70D3;}
	.st4{fill:none;}
	.st5{fill:none;stroke:#000000;stroke-width:0.3537;stroke-miterlimit:10;}
</style>
<path class="st0" d="M10.4,18.8v-4.7h3.8v4.7c0,0.5,0.4,0.9,0.9,0.9H18c0.5,0,0.9-0.5,0.9-0.9v-6.6h1.6c0.5,0,0.7-0.6,0.3-0.8
	l-7.9-7.1C12.5,4,12,4,11.7,4.3l-7.8,7.1c-0.4,0.3-0.2,0.8,0.3,0.8h1.6v6.6c0,0.5,0.4,0.9,0.9,0.9h2.8
	C10.1,19.8,10.4,19.4,10.4,18.8z"/>
<circle class="st1" cx="19.6" cy="18.9" r="3.8"/>
<g>
	<circle class="st2" cx="19.6" cy="18.8" r="2.7"/>
	<polyline class="st2" points="18.2,19.1 19,19.9 20.9,18 	"/>
</g>
</svg>
